# Blender v3.0.1 OBJ File: 'untitled.blend'
# www.blender.org
mtllib zenith.mtl
o Text
v 6.430280 -1.504543 -0.625003
v 6.430280 1.402433 -0.625002
v 7.136259 1.402433 -0.625002
v 7.136259 0.260407 -0.625002
v 8.531609 0.260407 -0.625002
v 8.531609 1.402433 -0.625002
v 9.237590 1.402433 -0.625002
v 9.237590 -1.504543 -0.625003
v 8.531609 -1.504543 -0.625003
v 8.531609 -0.354211 -0.625002
v 7.136259 -0.354211 -0.625002
v 7.136259 -1.504543 -0.625003
v 4.212673 -1.504543 -0.625003
v 4.212673 0.800274 -0.625002
v 3.120480 0.800274 -0.625002
v 3.120480 1.402433 -0.625002
v 6.010845 1.402433 -0.625002
v 6.010845 0.800274 -0.625002
v 4.918653 0.800274 -0.625002
v 4.918653 -1.504543 -0.625003
v 0.998387 -1.504543 -0.625003
v 0.998387 -0.952218 -0.625003
v 1.579782 -0.952218 -0.625003
v 1.579782 0.850108 -0.625002
v 0.998387 0.850108 -0.625002
v 0.998387 1.402433 -0.625002
v 2.867157 1.402433 -0.625002
v 2.867157 0.850108 -0.625002
v 2.285762 0.850108 -0.625002
v 2.285762 -0.952218 -0.625003
v 2.867157 -0.952218 -0.625003
v 2.867157 -1.504543 -0.625003
v -2.523208 -1.504543 -0.625003
v -2.523208 1.402433 -0.625002
v -1.443474 1.402433 -0.625002
v -0.334669 -0.748729 -0.625003
v -0.264072 -0.748729 -0.625003
v -0.264072 1.402433 -0.625002
v 0.408686 1.402433 -0.625002
v 0.408686 -1.504543 -0.625003
v -0.671048 -1.504543 -0.625003
v -1.779853 0.646619 -0.625002
v -1.850451 0.646619 -0.625002
v -1.850451 -1.504543 -0.625003
v -5.666895 -1.504543 -0.625003
v -5.666895 1.402433 -0.625002
v -3.108755 1.402433 -0.625002
v -3.108755 0.800274 -0.625002
v -4.960915 0.800274 -0.625002
v -4.960915 0.239643 -0.625002
v -3.565567 0.239643 -0.625002
v -3.565567 -0.316836 -0.625002
v -4.960915 -0.316836 -0.625002
v -4.960915 -0.902384 -0.625003
v -3.067228 -0.902384 -0.625003
v -3.067228 -1.504543 -0.625003
v -8.852111 -1.504543 -0.625003
v -8.852111 -0.694743 -0.625002
v -7.103772 0.683995 -0.625002
v -7.103772 0.800274 -0.625002
v -8.802277 0.800274 -0.625002
v -8.802277 1.402433 -0.625002
v -6.231679 1.402433 -0.625002
v -6.231679 0.592633 -0.625002
v -7.980018 -0.786105 -0.625003
v -7.980018 -0.902384 -0.625003
v -6.219220 -0.902384 -0.625003
v -6.219220 -1.504543 -0.625003
v 6.430280 -1.504543 0.624998
v 6.430280 1.402433 0.624998
v 7.136259 1.402433 0.624998
v 7.136259 0.260407 0.624998
v 8.531609 0.260407 0.624998
v 8.531609 1.402433 0.624998
v 9.237590 1.402433 0.624998
v 9.237590 -1.504543 0.624998
v 8.531609 -1.504543 0.624998
v 8.531609 -0.354211 0.624998
v 7.136259 -0.354211 0.624998
v 7.136259 -1.504543 0.624998
v 4.212673 -1.504543 0.624998
v 4.212673 0.800274 0.624998
v 3.120480 0.800274 0.624998
v 3.120480 1.402433 0.624998
v 6.010845 1.402433 0.624998
v 6.010845 0.800274 0.624998
v 4.918653 0.800274 0.624998
v 4.918653 -1.504543 0.624998
v 0.998387 -1.504543 0.624998
v 0.998387 -0.952218 0.624998
v 1.579782 -0.952218 0.624998
v 1.579782 0.850108 0.624998
v 0.998387 0.850108 0.624998
v 0.998387 1.402433 0.624998
v 2.867157 1.402433 0.624998
v 2.867157 0.850108 0.624998
v 2.285762 0.850108 0.624998
v 2.285762 -0.952218 0.624998
v 2.867157 -0.952218 0.624998
v 2.867157 -1.504543 0.624998
v -2.523208 -1.504543 0.624998
v -2.523208 1.402433 0.624998
v -1.443474 1.402433 0.624998
v -0.334669 -0.748730 0.624998
v -0.264072 -0.748730 0.624998
v -0.264072 1.402433 0.624998
v 0.408686 1.402433 0.624998
v 0.408686 -1.504543 0.624998
v -0.671048 -1.504543 0.624998
v -1.779853 0.646619 0.624998
v -1.850451 0.646619 0.624998
v -1.850451 -1.504543 0.624998
v -5.666895 -1.504543 0.624998
v -5.666895 1.402433 0.624998
v -3.108755 1.402433 0.624998
v -3.108755 0.800274 0.624998
v -4.960915 0.800274 0.624998
v -4.960915 0.239643 0.624998
v -3.565567 0.239643 0.624998
v -3.565567 -0.316836 0.624998
v -4.960915 -0.316836 0.624998
v -4.960915 -0.902384 0.624998
v -3.067228 -0.902384 0.624998
v -3.067228 -1.504543 0.624998
v -8.852111 -1.504543 0.624998
v -8.852111 -0.694743 0.624998
v -7.103772 0.683995 0.624998
v -7.103772 0.800274 0.624998
v -8.802277 0.800274 0.624998
v -8.802277 1.402433 0.624998
v -6.231679 1.402433 0.624998
v -6.231679 0.592633 0.624998
v -7.980018 -0.786105 0.624998
v -7.980018 -0.902384 0.624998
v -6.219220 -0.902384 0.624998
v -6.219220 -1.504543 0.624998
vt 0.363636 0.000000
vt 0.454545 0.000000
vt 0.545455 0.000000
vt 0.272727 0.000000
vt 0.636364 0.000000
vt 0.181818 0.000000
vt 0.090909 0.000000
vt 0.727273 0.000000
vt 0.000000 0.000000
vt 0.818182 0.000000
vt 0.909091 0.000000
vt 1.000000 0.000000
vt 0.363636 0.000000
vt 0.545455 0.000000
vt 0.454545 0.000000
vt 0.272727 0.000000
vt 0.636364 0.000000
vt 0.181818 0.000000
vt 0.090909 0.000000
vt 0.727273 0.000000
vt 0.000000 0.000000
vt 0.818182 0.000000
vt 0.909091 0.000000
vt 1.000000 0.000000
vt 0.000000 0.000000
vt 0.090909 0.000000
vt 0.363636 0.000000
vt 0.181818 0.000000
vt 0.272727 0.000000
vt 0.454545 0.000000
vt 0.727273 0.000000
vt 0.545455 0.000000
vt 0.636364 0.000000
vt 0.818182 0.000000
vt 0.909091 0.000000
vt 1.000000 0.000000
vt 0.000000 0.000000
vt 0.363636 0.000000
vt 0.090909 0.000000
vt 0.181818 0.000000
vt 0.272727 0.000000
vt 0.454545 0.000000
vt 0.727273 0.000000
vt 0.545455 0.000000
vt 0.636364 0.000000
vt 0.818182 0.000000
vt 0.909091 0.000000
vt 1.000000 0.000000
vt 0.000000 0.000000
vt 0.090909 0.000000
vt 0.909091 0.000000
vt 0.181818 0.000000
vt 0.818182 0.000000
vt 0.272727 0.000000
vt 0.363636 0.000000
vt 0.454545 0.000000
vt 0.545455 0.000000
vt 0.636364 0.000000
vt 1.000000 0.000000
vt 0.727273 0.000000
vt 0.000000 0.000000
vt 0.909091 0.000000
vt 0.090909 0.000000
vt 0.181818 0.000000
vt 0.818182 0.000000
vt 0.272727 0.000000
vt 0.363636 0.000000
vt 0.545455 0.000000
vt 0.454545 0.000000
vt 0.636364 0.000000
vt 1.000000 0.000000
vt 0.727273 0.000000
vt 0.363636 0.000000
vt 0.454545 0.000000
vt 0.545455 0.000000
vt 0.636364 0.000000
vt 0.272727 0.000000
vt 0.181818 0.000000
vt 0.727273 0.000000
vt 0.818182 0.000000
vt 0.000000 0.000000
vt 0.090909 0.000000
vt 0.909091 0.000000
vt 1.000000 0.000000
vt 0.363636 0.000000
vt 0.545455 0.000000
vt 0.454545 0.000000
vt 0.636364 0.000000
vt 0.272727 0.000000
vt 0.181818 0.000000
vt 0.727273 0.000000
vt 0.818182 0.000000
vt 0.000000 0.000000
vt 0.090909 0.000000
vt 0.909091 0.000000
vt 1.000000 0.000000
vt 0.285714 0.000000
vt 0.428571 0.000000
vt 0.571429 0.000000
vt 0.714286 0.000000
vt 0.142857 0.000000
vt 0.000000 0.000000
vt 0.857143 0.000000
vt 1.000000 0.000000
vt 0.285714 0.000000
vt 0.571429 0.000000
vt 0.428571 0.000000
vt 0.714286 0.000000
vt 0.142857 0.000000
vt 0.000000 0.000000
vt 0.857143 0.000000
vt 1.000000 0.000000
vt 0.000000 0.000000
vt 0.090909 0.000000
vt 0.181818 0.000000
vt 0.272727 0.000000
vt 0.909091 0.000000
vt 0.363636 0.000000
vt 1.000000 0.000000
vt 0.000000 0.000000
vt 0.181818 0.000000
vt 0.090909 0.000000
vt 0.272727 0.000000
vt 0.909091 0.000000
vt 0.363636 0.000000
vt 1.000000 0.000000
vt 0.454545 0.000000
vt 0.545455 0.000000
vt 0.636364 0.000000
vt 0.818182 0.000000
vt 0.727273 0.000000
vt 0.545455 0.000000
vt 0.454545 0.000000
vt 0.636364 0.000000
vt 0.818182 0.000000
vt 0.727273 0.000000
vn 0.0000 0.0000 -1.0000
vn 0.0000 -0.0000 1.0000
vn 0.0000 -1.0000 0.0000
vn 1.0000 0.0000 0.0000
vn -1.0000 0.0000 0.0000
vn -0.6192 0.7852 0.0000
vn 0.6192 -0.7852 -0.0000
vn 0.0000 1.0000 0.0000
vn 0.8889 0.4582 0.0000
vn -0.8889 -0.4582 0.0000
usemtl Red
s off
f 61/1/1 62/2/1 63/3/1
f 61/1/1 63/3/1 60/4/1
f 60/4/1 63/3/1 64/5/1
f 59/6/1 60/4/1 64/5/1
f 58/7/1 59/6/1 64/5/1
f 58/7/1 64/5/1 65/8/1
f 57/9/1 58/7/1 65/8/1
f 57/9/1 65/8/1 66/10/1
f 57/9/1 66/10/1 67/11/1
f 57/9/1 67/11/1 68/12/1
f 129/13/2 131/14/2 130/15/2
f 129/13/2 128/16/2 131/14/2
f 128/16/2 132/17/2 131/14/2
f 127/18/2 132/17/2 128/16/2
f 126/19/2 132/17/2 127/18/2
f 126/19/2 133/20/2 132/17/2
f 125/21/2 133/20/2 126/19/2
f 125/21/2 134/22/2 133/20/2
f 125/21/2 135/23/2 134/22/2
f 125/21/2 136/24/2 135/23/2
f 61/1/3 60/4/3 128/16/3 129/13/3
f 64/5/4 63/3/4 131/14/4 132/17/4
f 60/4/5 59/6/5 127/18/5 128/16/5
f 59/6/6 58/7/6 126/19/6 127/18/6
f 65/8/7 64/5/7 132/17/7 133/20/7
f 58/7/5 57/9/5 125/21/5 126/19/5
f 66/10/4 65/8/4 133/20/4 134/22/4
f 67/11/8 66/10/8 134/22/8 135/23/8
f 57/9/3 68/12/3 136/24/3 125/21/3
f 68/12/4 67/11/4 135/23/4 136/24/4
f 62/2/5 61/1/5 129/13/5 130/15/5
f 63/3/8 62/2/8 130/15/8 131/14/8
usemtl Orange
f 45/25/1 46/26/1 49/27/1
f 49/27/1 46/26/1 47/28/1
f 49/27/1 47/28/1 48/29/1
f 45/25/1 49/27/1 50/30/1
f 45/25/1 50/30/1 53/31/1
f 53/31/1 50/30/1 51/32/1
f 53/31/1 51/32/1 52/33/1
f 45/25/1 53/31/1 54/34/1
f 45/25/1 54/34/1 55/35/1
f 45/25/1 55/35/1 56/36/1
f 113/37/2 117/38/2 114/39/2
f 117/38/2 115/40/2 114/39/2
f 117/38/2 116/41/2 115/40/2
f 113/37/2 118/42/2 117/38/2
f 113/37/2 121/43/2 118/42/2
f 121/43/2 119/44/2 118/42/2
f 121/43/2 120/45/2 119/44/2
f 113/37/2 122/46/2 121/43/2
f 113/37/2 123/47/2 122/46/2
f 113/37/2 124/48/2 123/47/2
f 46/26/5 45/25/5 113/37/5 114/39/5
f 47/28/8 46/26/8 114/39/8 115/40/8
f 49/27/3 48/29/3 116/41/3 117/38/3
f 48/29/4 47/28/4 115/40/4 116/41/4
f 50/30/4 49/27/4 117/38/4 118/42/4
f 51/32/8 50/30/8 118/42/8 119/44/8
f 53/31/3 52/33/3 120/45/3 121/43/3
f 52/33/4 51/32/4 119/44/4 120/45/4
f 54/34/4 53/31/4 121/43/4 122/46/4
f 55/35/8 54/34/8 122/46/8 123/47/8
f 45/25/3 56/36/3 124/48/3 113/37/3
f 56/36/4 55/35/4 123/47/4 124/48/4
usemtl Yellow
f 33/49/1 34/50/1 43/51/1
f 43/51/1 34/50/1 35/52/1
f 43/51/1 35/52/1 42/53/1
f 42/53/1 35/52/1 36/54/1
f 37/55/1 38/56/1 39/57/1
f 37/55/1 39/57/1 40/58/1
f 33/49/1 43/51/1 44/59/1
f 41/60/1 42/53/1 36/54/1
f 41/60/1 36/54/1 37/55/1
f 41/60/1 37/55/1 40/58/1
f 101/61/2 111/62/2 102/63/2
f 111/62/2 103/64/2 102/63/2
f 111/62/2 110/65/2 103/64/2
f 110/65/2 104/66/2 103/64/2
f 105/67/2 107/68/2 106/69/2
f 105/67/2 108/70/2 107/68/2
f 101/61/2 112/71/2 111/62/2
f 109/72/2 104/66/2 110/65/2
f 109/72/2 105/67/2 104/66/2
f 109/72/2 108/70/2 105/67/2
f 37/55/8 36/54/8 104/66/8 105/67/8
f 41/60/3 40/58/3 108/70/3 109/72/3
f 34/50/5 33/49/5 101/61/5 102/63/5
f 35/52/8 34/50/8 102/63/8 103/64/8
f 43/51/3 42/53/3 110/65/3 111/62/3
f 36/54/9 35/52/9 103/64/9 104/66/9
f 38/56/5 37/55/5 105/67/5 106/69/5
f 39/57/8 38/56/8 106/69/8 107/68/8
f 40/58/4 39/57/4 107/68/4 108/70/4
f 33/49/3 44/59/3 112/71/3 101/61/3
f 44/59/4 43/51/4 111/62/4 112/71/4
f 42/53/10 41/60/10 109/72/10 110/65/10
usemtl Green
f 25/73/1 26/74/1 27/75/1
f 25/73/1 27/75/1 28/76/1
f 24/77/1 25/73/1 28/76/1
f 23/78/1 24/77/1 29/79/1
f 29/79/2 24/77/2 28/76/2
f 23/78/1 29/79/1 30/80/1
f 21/81/1 22/82/1 23/78/1
f 21/81/1 23/78/1 30/80/1
f 21/81/1 30/80/1 31/83/1
f 21/81/1 31/83/1 32/84/1
f 93/85/2 95/86/2 94/87/2
f 93/85/2 96/88/2 95/86/2
f 92/89/2 96/88/2 93/85/2
f 91/90/2 97/91/2 92/89/2
f 97/91/2 96/88/2 92/89/2
f 91/90/2 98/92/2 97/91/2
f 89/93/2 91/90/2 90/94/2
f 89/93/2 98/92/2 91/90/2
f 89/93/2 99/95/2 98/92/2
f 89/93/2 100/96/2 99/95/2
f 23/78/8 22/82/8 90/94/8 91/90/8
f 31/83/8 30/80/8 98/92/8 99/95/8
f 21/81/3 32/84/3 100/96/3 89/93/3
f 32/84/4 31/83/4 99/95/4 100/96/4
f 26/74/5 25/73/5 93/85/5 94/87/5
f 27/75/8 26/74/8 94/87/8 95/86/8
f 28/76/4 27/75/4 95/86/4 96/88/4
f 25/73/3 24/77/3 92/89/3 93/85/3
f 24/77/5 23/78/5 91/90/5 92/89/5
f 29/79/3 28/76/3 96/88/3 97/91/3
f 30/80/4 29/79/4 97/91/4 98/92/4
f 22/82/5 21/81/5 89/93/5 90/94/5
usemtl Blue
f 15/97/1 16/98/1 17/99/1
f 15/97/1 17/99/1 18/100/1
f 14/101/2 15/97/2 18/100/2
f 13/102/1 14/101/1 19/103/1
f 19/103/2 14/101/2 18/100/2
f 13/102/1 19/103/1 20/104/1
f 83/105/2 85/106/2 84/107/2
f 83/105/2 86/108/2 85/106/2
f 82/109/2 86/108/2 83/105/2
f 81/110/2 87/111/2 82/109/2
f 87/111/1 86/108/1 82/109/1
f 81/110/2 88/112/2 87/111/2
f 17/99/8 16/98/8 84/107/8 85/106/8
f 18/100/4 17/99/4 85/106/4 86/108/4
f 15/97/3 14/101/3 82/109/3 83/105/3
f 14/101/5 13/102/5 81/110/5 82/109/5
f 19/103/3 18/100/3 86/108/3 87/111/3
f 13/102/3 20/104/3 88/112/3 81/110/3
f 20/104/4 19/103/4 87/111/4 88/112/4
f 16/98/5 15/97/5 83/105/5 84/107/5
usemtl Indigo
f 1/113/1 2/114/1 3/115/1
f 1/113/1 3/115/1 4/116/1
f 1/113/1 4/116/1 11/117/1
f 11/117/1 4/116/1 5/118/1
f 1/113/1 11/117/1 12/119/1
f 69/120/2 71/121/2 70/122/2
f 69/120/2 72/123/2 71/121/2
f 69/120/2 79/124/2 72/123/2
f 79/124/2 73/125/2 72/123/2
f 69/120/2 80/126/2 79/124/2
f 2/114/5 1/113/5 69/120/5 70/122/5
f 3/115/8 2/114/8 70/122/8 71/121/8
f 4/116/4 3/115/4 71/121/4 72/123/4
f 5/118/8 4/116/8 72/123/8 73/125/8
f 1/113/3 12/119/3 80/126/3 69/120/3
f 12/119/4 11/117/4 79/124/4 80/126/4
usemtl Violet
f 5/118/1 6/127/1 7/128/1
f 5/118/1 7/128/1 8/129/1
f 11/117/1 5/118/1 10/130/1
f 10/130/1 5/118/1 8/129/1
f 9/131/1 10/130/1 8/129/1
f 73/125/2 75/132/2 74/133/2
f 73/125/2 76/134/2 75/132/2
f 79/124/2 78/135/2 73/125/2
f 78/135/2 76/134/2 73/125/2
f 77/136/2 76/134/2 78/135/2
f 6/127/5 5/118/5 73/125/5 74/133/5
f 7/128/8 6/127/8 74/133/8 75/132/8
f 8/129/4 7/128/4 75/132/4 76/134/4
f 11/117/3 10/130/3 78/135/3 79/124/3
f 10/130/5 9/131/5 77/136/5 78/135/5
f 9/131/3 8/129/3 76/134/3 77/136/3
